<svg xmlns="http://www.w3.org/2000/svg" viewBox="0 0 200 280" width="200" height="280"><defs><linearGradient id="xc2_m" x1="0" y1="0" x2="1" y2="1"><stop offset="0" stop-color="#fff7cf"/><stop offset=".28" stop-color="#ffdc5e"/><stop offset=".62" stop-color="#f0b323"/><stop offset="1" stop-color="#b97a0b"/></linearGradient><linearGradient id="xc2_sh" x1="0" y1="0" x2="1" y2="1"><stop offset=".30" stop-color="#fff" stop-opacity="0"/><stop offset=".42" stop-color="#fff" stop-opacity=".75"/><stop offset=".47" stop-color="#fff" stop-opacity="0"/><stop offset=".58" stop-color="#fff" stop-opacity="0"/><stop offset=".62" stop-color="#fff" stop-opacity=".35"/><stop offset=".66" stop-color="#fff" stop-opacity="0"/></linearGradient><filter id="xc2_bev" x="-10%" y="-10%" width="120%" height="120%"><feGaussianBlur in="SourceAlpha" stdDeviation="2.4" result="b"/><feSpecularLighting in="b" surfaceScale="3.2" specularConstant="1.05" specularExponent="20" lighting-color="#ffffff" result="s"><feDistantLight azimuth="235" elevation="38"/></feSpecularLighting><feComposite in="s" in2="SourceAlpha" operator="in" result="si"/><feDiffuseLighting in="b" surfaceScale="3.2" diffuseConstant="1.18" lighting-color="#ffffff" result="d"><feDistantLight azimuth="235" elevation="52"/></feDiffuseLighting><feComposite in="SourceGraphic" in2="d" operator="arithmetic" k1="1" k2="0" k3="0" k4="0" result="l"/><feComposite in="l" in2="si" operator="arithmetic" k1="0" k2="1" k3=".9" k4="0" result="lit"/><feComposite in="lit" in2="SourceAlpha" operator="in"/></filter><radialGradient id="xc2_g_ruby" cx=".38" cy=".35" r=".75"><stop offset="0" stop-color="#ffb3c1"/><stop offset=".45" stop-color="#ff3b5c"/><stop offset="1" stop-color="#a3001c"/></radialGradient><radialGradient id="xc2_g_sapphire" cx=".38" cy=".35" r=".75"><stop offset="0" stop-color="#c2dcff"/><stop offset=".45" stop-color="#3d7bff"/><stop offset="1" stop-color="#0d2c86"/></radialGradient><radialGradient id="xc2_g_emerald" cx=".38" cy=".35" r=".75"><stop offset="0" stop-color="#b8ffd3"/><stop offset=".45" stop-color="#26c267"/><stop offset="1" stop-color="#08622e"/></radialGradient><radialGradient id="xc2_g_amethyst" cx=".38" cy=".35" r=".75"><stop offset="0" stop-color="#ecd7ff"/><stop offset=".45" stop-color="#a45cf0"/><stop offset="1" stop-color="#4d1a8c"/></radialGradient><radialGradient id="xc2_g_diamond" cx=".38" cy=".35" r=".75"><stop offset="0" stop-color="#ffffff"/><stop offset=".45" stop-color="#d9f3ff"/><stop offset="1" stop-color="#7cc5ec"/></radialGradient><radialGradient id="xc2_g_topaz" cx=".38" cy=".35" r=".75"><stop offset="0" stop-color="#fff0b8"/><stop offset=".45" stop-color="#ffb72e"/><stop offset="1" stop-color="#a35c00"/></radialGradient><radialGradient id="xc2_g_garnet" cx=".38" cy=".35" r=".75"><stop offset="0" stop-color="#ffb0b8"/><stop offset=".45" stop-color="#c8283f"/><stop offset="1" stop-color="#5c0816"/></radialGradient><radialGradient id="xc2_g_pearl" cx=".38" cy=".35" r=".75"><stop offset="0" stop-color="#ffffff"/><stop offset=".45" stop-color="#f5eef9"/><stop offset="1" stop-color="#c8b8d6"/></radialGradient><radialGradient id="xc2_g_turquoise" cx=".38" cy=".35" r=".75"><stop offset="0" stop-color="#c9fff5"/><stop offset=".45" stop-color="#2fd3bd"/><stop offset="1" stop-color="#0b7d70"/></radialGradient><clipPath id="xc2_cp"><path d="M88.1,98Q86.7,57.1 69.9,32L130.1,32Q113.3,57.1 111.9,98Z"/><path d="M111.9,98Q113.3,192.2 130.1,250L69.9,250Q86.7,192.2 88.1,98Z"/><path d="M100,109.9Q61.6,111.3 38,128.1L38,67.9Q61.6,84.7 100,86.1Z"/><path d="M100,86.1Q138.4,84.7 162,67.9L162,128.1Q138.4,111.3 100,109.9Z"/><path d="M86,84L114,84L114,112L86,112Z"/></clipPath></defs><circle cx="100" cy="12" r="9" fill="none" stroke="#5a3805" stroke-width="9"/><circle cx="100" cy="12" r="9" fill="none" stroke="url(#xc2_m)" stroke-width="5"/><g><g fill="#5a3805" stroke="#5a3805" stroke-width="9" stroke-linejoin="round"><path d="M88.1,98Q86.7,57.1 69.9,32L130.1,32Q113.3,57.1 111.9,98Z"/><path d="M111.9,98Q113.3,192.2 130.1,250L69.9,250Q86.7,192.2 88.1,98Z"/><path d="M100,109.9Q61.6,111.3 38,128.1L38,67.9Q61.6,84.7 100,86.1Z"/><path d="M100,86.1Q138.4,84.7 162,67.9L162,128.1Q138.4,111.3 100,109.9Z"/><path d="M86,84L114,84L114,112L86,112Z"/><path d="M92 34 L94 20 Q100 16 106 20 L108 34 Z"/></g><g filter="url(#xc2_bev)" fill="url(#xc2_m)"><path d="M88.1,98Q86.7,57.1 69.9,32L130.1,32Q113.3,57.1 111.9,98Z"/><path d="M111.9,98Q113.3,192.2 130.1,250L69.9,250Q86.7,192.2 88.1,98Z"/><path d="M100,109.9Q61.6,111.3 38,128.1L38,67.9Q61.6,84.7 100,86.1Z"/><path d="M100,86.1Q138.4,84.7 162,67.9L162,128.1Q138.4,111.3 100,109.9Z"/><path d="M86,84L114,84L114,112L86,112Z"/><path d="M92 34 L94 20 Q100 16 106 20 L108 34 Z"/></g></g><circle cx="100" cy="98" r="12" fill="#a3001c"/><circle cx="100" cy="98" r="10" fill="url(#xc2_g_ruby)"/><path d="M94.5 97 L99 92 L103.5 94.5 Z" fill="#fff" opacity=".8"/><circle cx="103.5" cy="101.5" r="1.7999999999999998" fill="#fff" opacity=".6"/><circle cx="100" cy="46" r="9" fill="#a3001c"/><circle cx="100" cy="46" r="7" fill="url(#xc2_g_ruby)"/><path d="M96.15 45.3 L99.3 41.8 L102.45 43.55 Z" fill="#fff" opacity=".8"/><circle cx="102.45" cy="48.45" r="1.26" fill="#fff" opacity=".6"/><circle cx="100" cy="236" r="9" fill="#a3001c"/><circle cx="100" cy="236" r="7" fill="url(#xc2_g_ruby)"/><path d="M96.15 235.3 L99.3 231.8 L102.45 233.55 Z" fill="#fff" opacity=".8"/><circle cx="102.45" cy="238.45" r="1.26" fill="#fff" opacity=".6"/><circle cx="52" cy="98" r="9" fill="#a3001c"/><circle cx="52" cy="98" r="7" fill="url(#xc2_g_ruby)"/><path d="M48.15 97.3 L51.3 93.8 L54.45 95.55 Z" fill="#fff" opacity=".8"/><circle cx="54.45" cy="100.45" r="1.26" fill="#fff" opacity=".6"/><circle cx="148" cy="98" r="9" fill="#a3001c"/><circle cx="148" cy="98" r="7" fill="url(#xc2_g_ruby)"/><path d="M144.15 97.3 L147.3 93.8 L150.45 95.55 Z" fill="#fff" opacity=".8"/><circle cx="150.45" cy="100.45" r="1.26" fill="#fff" opacity=".6"/><circle cx="100" cy="46" r="5.6" fill="#c8b8d6"/><circle cx="100" cy="46" r="3.6" fill="url(#xc2_g_pearl)"/><path d="M98.02 45.64 L99.64 43.84 L101.26 44.74 Z" fill="#fff" opacity=".8"/><circle cx="101.26" cy="47.26" r="0.648" fill="#fff" opacity=".6"/><circle cx="100" cy="62" r="5.6" fill="#c8b8d6"/><circle cx="100" cy="62" r="3.6" fill="url(#xc2_g_pearl)"/><path d="M98.02 61.64 L99.64 59.84 L101.26 60.74 Z" fill="#fff" opacity=".8"/><circle cx="101.26" cy="63.26" r="0.648" fill="#fff" opacity=".6"/><circle cx="100" cy="78" r="5.6" fill="#c8b8d6"/><circle cx="100" cy="78" r="3.6" fill="url(#xc2_g_pearl)"/><path d="M98.02 77.64 L99.64 75.84 L101.26 76.74 Z" fill="#fff" opacity=".8"/><circle cx="101.26" cy="79.26" r="0.648" fill="#fff" opacity=".6"/><circle cx="100" cy="126" r="5.6" fill="#c8b8d6"/><circle cx="100" cy="126" r="3.6" fill="url(#xc2_g_pearl)"/><path d="M98.02 125.64 L99.64 123.84 L101.26 124.74 Z" fill="#fff" opacity=".8"/><circle cx="101.26" cy="127.26" r="0.648" fill="#fff" opacity=".6"/><circle cx="100" cy="142" r="5.6" fill="#c8b8d6"/><circle cx="100" cy="142" r="3.6" fill="url(#xc2_g_pearl)"/><path d="M98.02 141.64 L99.64 139.84 L101.26 140.74 Z" fill="#fff" opacity=".8"/><circle cx="101.26" cy="143.26" r="0.648" fill="#fff" opacity=".6"/><circle cx="100" cy="158" r="5.6" fill="#c8b8d6"/><circle cx="100" cy="158" r="3.6" fill="url(#xc2_g_pearl)"/><path d="M98.02 157.64 L99.64 155.84 L101.26 156.74 Z" fill="#fff" opacity=".8"/><circle cx="101.26" cy="159.26" r="0.648" fill="#fff" opacity=".6"/><circle cx="100" cy="174" r="5.6" fill="#c8b8d6"/><circle cx="100" cy="174" r="3.6" fill="url(#xc2_g_pearl)"/><path d="M98.02 173.64 L99.64 171.84 L101.26 172.74 Z" fill="#fff" opacity=".8"/><circle cx="101.26" cy="175.26" r="0.648" fill="#fff" opacity=".6"/><circle cx="100" cy="190" r="5.6" fill="#c8b8d6"/><circle cx="100" cy="190" r="3.6" fill="url(#xc2_g_pearl)"/><path d="M98.02 189.64 L99.64 187.84 L101.26 188.74 Z" fill="#fff" opacity=".8"/><circle cx="101.26" cy="191.26" r="0.648" fill="#fff" opacity=".6"/><circle cx="100" cy="206" r="5.6" fill="#c8b8d6"/><circle cx="100" cy="206" r="3.6" fill="url(#xc2_g_pearl)"/><path d="M98.02 205.64 L99.64 203.84 L101.26 204.74 Z" fill="#fff" opacity=".8"/><circle cx="101.26" cy="207.26" r="0.648" fill="#fff" opacity=".6"/><circle cx="54" cy="98" r="5.6" fill="#c8b8d6"/><circle cx="54" cy="98" r="3.6" fill="url(#xc2_g_pearl)"/><path d="M52.02 97.64 L53.64 95.84 L55.26 96.74 Z" fill="#fff" opacity=".8"/><circle cx="55.26" cy="99.26" r="0.648" fill="#fff" opacity=".6"/><circle cx="70" cy="98" r="5.6" fill="#c8b8d6"/><circle cx="70" cy="98" r="3.6" fill="url(#xc2_g_pearl)"/><path d="M68.02 97.64 L69.64 95.84 L71.26 96.74 Z" fill="#fff" opacity=".8"/><circle cx="71.26" cy="99.26" r="0.648" fill="#fff" opacity=".6"/><circle cx="118" cy="98" r="5.6" fill="#c8b8d6"/><circle cx="118" cy="98" r="3.6" fill="url(#xc2_g_pearl)"/><path d="M116.02 97.64 L117.64 95.84 L119.26 96.74 Z" fill="#fff" opacity=".8"/><circle cx="119.26" cy="99.26" r="0.648" fill="#fff" opacity=".6"/><circle cx="134" cy="98" r="5.6" fill="#c8b8d6"/><circle cx="134" cy="98" r="3.6" fill="url(#xc2_g_pearl)"/><path d="M132.02 97.64 L133.64 95.84 L135.26 96.74 Z" fill="#fff" opacity=".8"/><circle cx="135.26" cy="99.26" r="0.648" fill="#fff" opacity=".6"/><g clip-path="url(#xc2_cp)"><rect x="0" y="0" width="200" height="280" fill="url(#xc2_sh)"/></g><path d="M94 31 Q95.62 38.38 103 40 Q95.62 41.62 94 49 Q92.38 41.62 85 40 Q92.38 38.38 94 31 Z" fill="#fff" opacity="1"/><path d="M104 240 Q105.08 244.92 110 246 Q105.08 247.08 104 252 Q102.92 247.08 98 246 Q102.92 244.92 104 240 Z" fill="#fff" opacity="0.9"/></svg>